<?xml version="1.0" encoding="iso-8859-1"?>
<!-- Generator: Adobe Illustrator 19.0.0, SVG Export Plug-In . SVG Version: 6.00 Build 0)  -->
<svg version="1.1" id="Layer_1" xmlns="http://www.w3.org/2000/svg" xmlns:xlink="http://www.w3.org/1999/xlink" x="0px" y="0px"
	 viewBox="0 0 512.001 512.001" style="enable-background:new 0 0 512.001 512.001;" xml:space="preserve">
<circle style="fill:#F2F2F2;" cx="256.002" cy="256.002" r="237.838"/>
<path style="fill:#CCCCCC;" d="M399.802,147.23H112.198c-10.258,0-18.573,8.316-18.573,18.573v180.394
	c0,10.258,8.315,18.573,18.573,18.573h287.603c10.258,0,18.573-8.316,18.573-18.573V165.804
	C418.375,155.546,410.059,147.23,399.802,147.23z"/>
<circle style="fill:#999999;" cx="256.002" cy="256.002" r="86.101"/>
<circle style="fill:#9ACAEF;" cx="256.002" cy="256.002" r="59.361"/>
<path style="fill:#D0EAFC;" d="M255.999,196.642c-4.105,0-8.113,0.417-11.982,1.211c27.039,5.543,47.376,29.47,47.376,58.148
	s-20.338,52.605-47.376,58.148c3.87,0.793,7.877,1.211,11.982,1.211c32.783,0,59.359-26.575,59.359-59.359
	S288.783,196.642,255.999,196.642z"/>
<g>
	<rect x="325.74" y="120.97" style="fill:#999999;" width="65.575" height="26.261"/>
	<circle style="fill:#999999;" cx="145.67" cy="322.899" r="20.817"/>
</g>
<rect x="350.721" y="175.095" style="fill:#32A8EA;" width="44.757" height="26.022"/>
<path style="fill:#EF5959;" d="M437.019,74.982C388.668,26.629,324.38,0.001,256.001,0.001S123.332,26.629,74.981,74.982
	C26.629,123.333,0,187.62,0,256s26.629,132.668,74.981,181.019S187.621,512,256.001,512s132.667-26.629,181.02-74.981
	S512.001,324.38,512.001,256C512,187.62,485.371,123.333,437.019,74.982z M39.553,256c0-52.569,18.845-100.815,50.124-138.354
	l304.677,304.678c-37.539,31.279-85.785,50.124-138.353,50.124C136.65,472.448,39.553,375.35,39.553,256z M422.322,394.354
	L117.646,89.679c37.539-31.28,85.785-50.125,138.354-50.125c119.349,0,216.446,97.097,216.446,216.446
	C472.447,308.57,453.602,356.815,422.322,394.354z"/>
<g>
</g>
<g>
</g>
<g>
</g>
<g>
</g>
<g>
</g>
<g>
</g>
<g>
</g>
<g>
</g>
<g>
</g>
<g>
</g>
<g>
</g>
<g>
</g>
<g>
</g>
<g>
</g>
<g>
</g>
</svg>
